<svg width="51" height="85" viewBox="0 0 51 85" fill="none" xmlns="http://www.w3.org/2000/svg">
<path d="M43.2941 78.1452C43.2941 80.4125 41.4728 82.2581 39.2353 82.2581H37.8824V80.8871C37.8824 78.6198 36.061 76.7742 33.8235 76.7742H12.1765C9.93896 76.7742 8.11765 78.6198 8.11765 80.8871V82.2581H6.76471C4.5272 82.2581 2.70588 80.4125 2.70588 78.1452V6.85484C2.70588 5.15786 3.72587 3.6992 5.17659 3.07129L12.5728 10.5661C12.8259 10.8238 13.1694 10.9677 13.5294 10.9677H32.4706C32.8306 10.9677 33.1741 10.8238 33.4272 10.5661L40.8234 3.07129C42.2741 3.6992 43.2941 5.15786 43.2941 6.85484V23.3065H46V6.85484C46 3.07531 42.9651 0 39.2353 0H6.76471C3.03487 0 0 3.07531 0 6.85484V78.1452C0 81.9247 3.03487 85 6.76471 85H39.2353C42.9651 85 46 81.9247 46 78.1452V58.9516H43.2941V78.1452ZM31.9104 8.22581H14.0896L8.67785 2.74194H37.3222L31.9104 8.22581ZM10.8235 80.8871C10.8235 80.1307 11.43 79.5161 12.1765 79.5161H33.8235C34.57 79.5161 35.1765 80.1307 35.1765 80.8871V82.2581H10.8235V80.8871Z" fill="white"/>
<path d="M49.6429 27.2945C43.879 27.2945 38.4597 25.0084 34.3843 20.8567L32.9595 19.4055C32.4287 18.8648 31.5713 18.8648 31.0405 19.4055L29.6157 20.8567C25.5403 25.0084 20.121 27.2945 14.3571 27.2945C13.6063 27.2945 13 27.9121 13 28.6769V30.3191C13 44.459 19.8142 57.706 31.228 65.7536C31.4599 65.917 31.7296 66 32 66C32.2704 66 32.5401 65.917 32.772 65.7536C44.1858 57.706 51 44.459 51 30.3191V28.6769C51 27.9121 50.3937 27.2945 49.6429 27.2945ZM48.2857 30.3191C48.2857 43.2285 42.215 55.3449 32 62.9215C21.785 55.3449 15.7143 43.2285 15.7143 30.3191V30.0207C21.6922 29.6873 27.2679 27.1575 31.5348 22.81L32 22.3376L32.4652 22.8114C36.7334 27.1589 42.3078 29.6887 48.2857 30.0221V30.3191Z" fill="white"/>
<path d="M26.6667 34.25V36.875H25.3333C24.5957 36.875 24 37.4614 24 38.1875V48.6875C24 49.4136 24.5957 50 25.3333 50H38.6667C39.4043 50 40 49.4136 40 48.6875V38.1875C40 37.4614 39.4043 36.875 38.6667 36.875H37.3333V34.25C37.3333 31.3546 34.9414 29 32 29C29.0586 29 26.6667 31.3546 26.6667 34.25ZM37.3333 47.375H26.6667V39.5H37.3333V47.375ZM34.6667 34.25V36.875H29.3333V34.25C29.3333 32.8023 30.5293 31.625 32 31.625C33.4707 31.625 34.6667 32.8023 34.6667 34.25Z" fill="white"/>
</svg>
