<svg width="69" height="69" viewBox="0 0 69 69" fill="none" xmlns="http://www.w3.org/2000/svg">
<path d="M65.55 0H3.45C2.535 0 1.65748 0.363481 1.01048 1.01048C0.363481 1.65748 0 2.535 0 3.45L0 54.05C0 54.965 0.363481 55.8425 1.01048 56.4895C1.65748 57.1365 2.535 57.5 3.45 57.5H26.335C25.6576 61.2122 21.8258 62.0793 21.62 62.123C20.4437 62.1802 19.3343 62.6871 18.521 63.5389C17.7077 64.3907 17.2527 65.5223 17.25 66.7C17.25 67.31 17.4923 67.895 17.9237 68.3263C18.355 68.7577 18.94 69 19.55 69H49.45C50.06 69 50.645 68.7577 51.0763 68.3263C51.5077 67.895 51.75 67.31 51.75 66.7C51.7456 65.5228 51.29 64.3921 50.4771 63.5407C49.6642 62.6892 48.5557 62.1819 47.38 62.123C47.1994 62.0862 43.3389 61.257 42.665 57.5H65.55C66.465 57.5 67.3425 57.1365 67.9895 56.4895C68.6365 55.8425 69 54.965 69 54.05V3.45C69 2.535 68.6365 1.65748 67.9895 1.01048C67.3425 0.363481 66.465 0 65.55 0ZM3.45 2.3H65.55C65.855 2.3 66.1475 2.42116 66.3632 2.63683C66.5788 2.85249 66.7 3.145 66.7 3.45V48.3H2.3V3.45C2.3 3.145 2.42116 2.85249 2.63683 2.63683C2.85249 2.42116 3.145 2.3 3.45 2.3ZM49.45 66.7H19.55C19.55 66.09 19.7923 65.505 20.2237 65.0737C20.655 64.6423 21.24 64.4 21.85 64.4H47.15C47.7595 64.4015 48.3437 64.6443 48.7747 65.0753C49.2057 65.5063 49.4485 66.0905 49.45 66.7ZM42.6443 62.1H26.3534C27.638 60.8835 28.4572 59.2564 28.6695 57.5H40.3305C40.5428 59.2564 41.362 60.8835 42.6466 62.1H42.6443ZM65.55 55.2H3.45C3.145 55.2 2.85249 55.0788 2.63683 54.8632C2.42116 54.6475 2.3 54.355 2.3 54.05V50.6H66.7V54.05C66.7 54.355 66.5788 54.6475 66.3632 54.8632C66.1475 55.0788 65.855 55.2 65.55 55.2Z" fill="white"/>
<path d="M6.34615 45H62.6538C63.2761 45 63.8728 44.76 64.3128 44.3329C64.7528 43.9057 65 43.3263 65 42.7222V6.27778C65 5.67367 64.7528 5.09431 64.3128 4.66715C63.8728 4.23998 63.2761 4 62.6538 4H6.34615C5.72392 4 5.12716 4.23998 4.68717 4.66715C4.24718 5.09431 4 5.67367 4 6.27778V42.7222C4 43.3263 4.24718 43.9057 4.68717 44.3329C5.12716 44.76 5.72392 45 6.34615 45ZM20.6976 34.717L19.2559 31.388C19.616 30.9643 20.0078 30.5577 20.3891 30.1785C20.8002 29.7753 21.2425 29.4033 21.7123 29.0658L25.0814 30.4609C25.2523 30.5318 25.438 30.5623 25.6234 30.5498C25.8088 30.5374 25.9885 30.4823 26.1477 30.3892C27.5299 29.5785 29.0304 28.9753 30.5983 28.6C30.7793 28.5566 30.947 28.472 31.0875 28.3532C31.2281 28.2344 31.3375 28.0847 31.4066 27.9167L32.8061 24.5752C33.9464 24.4507 35.0983 24.4648 36.235 24.6173L37.5934 27.9167C37.6625 28.0847 37.7719 28.2344 37.9124 28.3532C38.053 28.472 38.2207 28.5566 38.4017 28.6C39.9698 28.9764 41.4703 29.5808 42.8523 30.3926C43.0115 30.4857 43.1912 30.5408 43.3766 30.5532C43.562 30.5657 43.7477 30.5353 43.9186 30.4644L47.3475 29.0647C47.7839 29.4154 48.2027 29.7947 48.5933 30.1648C49.009 30.5637 49.3922 30.9932 49.7394 31.4495L48.3024 34.7204C48.2294 34.8863 48.198 35.0667 48.2109 35.2467C48.2237 35.4266 48.2804 35.6011 48.3763 35.7556C49.211 37.0965 49.8323 38.5521 50.2192 40.0732C50.2639 40.2488 50.3511 40.4117 50.4735 40.5481C50.5959 40.6846 50.75 40.7908 50.9231 40.8579L54.3649 42.2166C54.3813 42.3771 54.3895 42.5514 54.4012 42.7222H48.5171C48.2289 39.305 46.6271 36.1181 44.0299 33.7947C41.4328 31.4713 38.0304 30.1814 34.4988 30.1814C30.9672 30.1814 27.5649 31.4713 24.9677 33.7947C22.3706 36.1181 20.7688 39.305 20.4806 42.7222H14.6152C14.6328 42.5377 14.6468 42.3532 14.6785 42.1744L18.0769 40.8579C18.25 40.7908 18.4041 40.6846 18.5265 40.5481C18.6489 40.4117 18.7361 40.2488 18.7808 40.0732C19.1685 38.5508 19.791 37.094 20.6272 35.7522C20.7225 35.5974 20.7786 35.4228 20.7909 35.2428C20.8031 35.0628 20.7711 34.8826 20.6976 34.717ZM46.1709 42.7222H22.8267C23.1172 39.9127 24.4723 37.3082 26.629 35.4139C28.7858 33.5197 31.5905 32.4708 34.4988 32.4708C37.4072 32.4708 40.2118 33.5197 42.3686 35.4139C44.5254 37.3082 45.8805 39.9127 46.1709 42.7222ZM6.34615 6.27778H62.6538V42.7222H56.7556C56.7415 42.4751 56.7263 42.2314 56.704 42.0036C56.6591 41.5771 56.495 41.1706 56.2293 40.8281C55.9636 40.4856 55.6065 40.2202 55.1966 40.0606L52.3448 38.9548C51.9525 37.6053 51.3973 36.3056 50.6908 35.0826L51.8967 32.339C52.077 31.9469 52.1403 31.5136 52.0793 31.0883C52.0183 30.6631 51.8356 30.263 51.5518 29.9336C51.1917 29.5088 50.7835 29.0749 50.2521 28.5476C49.7265 28.0488 49.2796 27.6524 48.8561 27.3142C48.5162 27.0358 48.1024 26.8561 47.6621 26.7956C47.2218 26.7352 46.7729 26.7965 46.3668 26.9725L43.5386 28.1444C42.2788 27.4586 40.9401 26.9196 39.5501 26.5386L38.4099 23.7666C38.2463 23.3711 37.975 23.0263 37.6248 22.7693C37.2747 22.5123 36.8591 22.3527 36.4227 22.3076C35.1453 22.1983 33.8605 22.1983 32.5832 22.3076C32.1439 22.3512 31.7252 22.5106 31.3724 22.7685C31.0197 23.0265 30.7463 23.3732 30.5819 23.7711L29.4429 26.5397C28.0529 26.9207 26.7141 27.4597 25.4544 28.1456L22.6355 26.9714C22.2317 26.7964 21.7853 26.735 21.3473 26.7942C20.9093 26.8534 20.4972 27.0308 20.158 27.3062C19.7204 27.6559 19.2735 28.0522 18.7303 28.5681C18.2165 29.0783 17.8083 29.5122 17.4599 29.9234C17.1734 30.2535 16.9884 30.6552 16.9262 31.0826C16.8639 31.5101 16.9269 31.9458 17.108 32.3401L18.3115 35.0917C17.6051 36.3147 17.0499 37.6144 16.6575 38.9639L13.8022 40.0709C13.3949 40.2296 13.0398 40.4931 12.775 40.833C12.5103 41.1729 12.3459 41.5764 12.2995 42.0002C12.2761 42.2348 12.2608 42.4819 12.2467 42.7336H6.34615V6.27778Z" fill="white"/>
<path d="M23.5 20C24.4283 20 25.3185 19.6839 25.9749 19.1213C26.6313 18.5587 27 17.7956 27 17C27 16.7348 26.8771 16.4804 26.6583 16.2929C26.4395 16.1054 26.1428 16 25.8333 16C25.5239 16 25.2272 16.1054 25.0084 16.2929C24.7896 16.4804 24.6667 16.7348 24.6667 17C24.6667 17.2652 24.5438 17.5196 24.325 17.7071C24.1062 17.8946 23.8094 18 23.5 18C23.1906 18 22.8938 17.8946 22.675 17.7071C22.4562 17.5196 22.3333 17.2652 22.3333 17V13C22.3333 12.7348 22.4562 12.4804 22.675 12.2929C22.8938 12.1054 23.1906 12 23.5 12C23.8094 12 24.1062 12.1054 24.325 12.2929C24.5438 12.4804 24.6667 12.7348 24.6667 13C24.6667 13.2652 24.7896 13.5196 25.0084 13.7071C25.2272 13.8946 25.5239 14 25.8333 14C26.1428 14 26.4395 13.8946 26.6583 13.7071C26.8771 13.5196 27 13.2652 27 13C27 12.2044 26.6313 11.4413 25.9749 10.8787C25.3185 10.3161 24.4283 10 23.5 10C22.5717 10 21.6815 10.3161 21.0251 10.8787C20.3687 11.4413 20 12.2044 20 13V17C20 17.7956 20.3687 18.5587 21.0251 19.1213C21.6815 19.6839 22.5717 20 23.5 20Z" fill="white"/>
<path d="M31.125 20C31.4234 20 31.7095 19.8946 31.9205 19.7071C32.1315 19.5196 32.25 19.2652 32.25 19V13L33.15 14.067C33.3128 14.2458 33.5186 14.39 33.7521 14.489C33.9857 14.588 34.2412 14.6394 34.5 14.6394C34.7588 14.6394 35.0143 14.588 35.2479 14.489C35.4814 14.39 35.6872 14.2458 35.85 14.067L36.75 13V19C36.75 19.2652 36.8685 19.5196 37.0795 19.7071C37.2905 19.8946 37.5766 20 37.875 20C38.1734 20 38.4595 19.8946 38.6705 19.7071C38.8815 19.5196 39 19.2652 39 19V11.5C39 11.1852 38.8886 10.8783 38.6815 10.6229C38.4744 10.3675 38.1821 10.1765 37.8461 10.077C37.5101 9.97742 37.1474 9.97436 36.8093 10.0682C36.4713 10.1621 36.175 10.3481 35.9625 10.6L34.5 12.335L33.0375 10.6C32.825 10.3481 32.5287 10.1621 32.1907 10.0682C31.8526 9.97436 31.4899 9.97742 31.1539 10.077C30.8179 10.1765 30.5256 10.3675 30.3185 10.6229C30.1114 10.8783 30 11.1852 30 11.5V19C30 19.2652 30.1185 19.5196 30.3295 19.7071C30.5405 19.8946 30.8266 20 31.125 20Z" fill="white"/>
<path d="M45.5 16C45.7047 16.0002 45.9058 16.0465 46.083 16.1344C46.2603 16.2223 46.4074 16.3486 46.5096 16.5006C46.6119 16.6527 46.6656 16.8251 46.6655 17.0006C46.6654 17.1761 46.6114 17.3485 46.5089 17.5004C46.4065 17.6524 46.2592 17.7785 46.0818 17.8662C45.9045 17.9539 45.7033 18 45.4986 18C45.2938 18 45.0927 17.9537 44.9154 17.866C44.7381 17.7782 44.5909 17.652 44.4885 17.5C44.3289 17.2789 44.0752 17.1198 43.781 17.0563C43.4869 16.9929 43.1755 17.0302 42.9128 17.1602C42.6502 17.2903 42.457 17.5029 42.3741 17.753C42.2913 18.0031 42.3253 18.2711 42.4691 18.5C42.7763 18.9561 43.2181 19.3348 43.7501 19.5981C44.2822 19.8614 44.8857 20 45.5001 20C46.1145 20 46.718 19.8614 47.2501 19.5981C47.7821 19.3348 48.2239 18.956 48.5311 18.5C48.8383 18.0439 49 17.5266 49 17C49 16.4733 48.8383 15.956 48.5311 15.5C48.2239 15.0439 47.782 14.6652 47.25 14.4019C46.7179 14.1386 46.1144 14 45.5 14C45.2953 13.9998 45.0942 13.9535 44.917 13.8656C44.7397 13.7777 44.5926 13.6514 44.4904 13.4994C44.3881 13.3473 44.3344 13.1749 44.3345 12.9994C44.3346 12.8239 44.3886 12.6515 44.4911 12.4996C44.5935 12.3476 44.7408 12.2215 44.9182 12.1338C45.0955 12.0461 45.2967 12 45.5014 12C45.7062 12 45.9073 12.0463 46.0846 12.134C46.2619 12.2218 46.4091 12.348 46.5115 12.5C46.6711 12.7211 46.9248 12.8802 47.219 12.9437C47.5131 13.0071 47.8245 12.9698 48.0872 12.8398C48.3498 12.7097 48.543 12.4971 48.6259 12.247C48.7087 11.9969 48.6747 11.7289 48.5309 11.5C48.2237 11.0439 47.7819 10.6652 47.2499 10.4019C46.7178 10.1386 46.1143 10 45.4999 10C44.8855 10 44.282 10.1386 43.7499 10.4019C43.2179 10.6652 42.7761 11.044 42.4689 11.5C42.1617 11.9561 42 12.4734 42 13C42 13.5267 42.1617 14.044 42.4689 14.5C42.7761 14.9561 43.218 15.3348 43.75 15.5981C44.2821 15.8614 44.8856 16 45.5 16Z" fill="white"/>
<path d="M15.8333 20C16.1428 20 16.4395 19.8946 16.6583 19.7071C16.8771 19.5196 17 19.2652 17 19C17 18.7348 16.8771 18.4804 16.6583 18.2929C16.4395 18.1054 16.1428 18 15.8333 18H11.1667C10.8572 18 10.5605 18.1054 10.3417 18.2929C10.1229 18.4804 10 18.7348 10 19C10 19.2652 10.1229 19.5196 10.3417 19.7071C10.5605 19.8946 10.8572 20 11.1667 20H15.8333Z" fill="white"/>
<path d="M53.1667 20H57.8333C58.1428 20 58.4395 19.8946 58.6583 19.7071C58.8771 19.5196 59 19.2652 59 19C59 18.7348 58.8771 18.4804 58.6583 18.2929C58.4395 18.1054 58.1428 18 57.8333 18H53.1667C52.8572 18 52.5605 18.1054 52.3417 18.2929C52.1229 18.4804 52 18.7348 52 19C52 19.2652 52.1229 19.5196 52.3417 19.7071C52.5605 19.8946 52.8572 20 53.1667 20Z" fill="white"/>
</svg>
