<svg width="65" height="65" viewBox="0 0 65 65" fill="none" xmlns="http://www.w3.org/2000/svg">
<path d="M35.0311 10.9742C31.8379 7.7889 27.511 6 22.9998 6C18.4887 6 14.1618 7.7889 10.9686 10.9742C0.2585 21.6338 8.05553 40.1007 22.9995 39.9996C37.9443 40.101 45.7419 21.6316 35.0311 10.9742ZM33.4775 33.4737C30.6963 36.2469 26.9282 37.8044 22.9998 37.8044C19.0714 37.8044 15.3033 36.2469 12.5221 33.4737C3.19446 24.1901 9.98494 8.10829 23.0005 8.19651C36.0151 8.10902 42.8054 24.1927 33.4775 33.4737Z" fill="white"/>
<path d="M63.3073 53.9273L51.1017 41.7212C50.0142 40.7028 49.0735 42.1636 48.3468 42.8372L41.8431 36.3332C44.9652 31.9077 46.4259 26.5225 45.968 21.1259C45.5101 15.7293 43.1629 10.6673 39.3397 6.83117C16.8992 -13.8331 -13.841 16.8783 6.83262 39.3398C10.665 43.1692 15.7276 45.5207 21.1258 45.9787C26.524 46.4367 31.9104 44.9719 36.3332 41.843L42.8371 48.3471L41.7211 49.4632C41.6135 49.5708 41.5281 49.6985 41.4698 49.8391C41.4115 49.9797 41.3815 50.1304 41.3815 50.2827C41.3815 50.4349 41.4115 50.5856 41.4698 50.7262C41.5281 50.8668 41.6135 50.9946 41.7211 51.1022L53.9268 63.3082C59.4897 68.8432 68.8462 59.4962 63.3073 53.9273ZM8.47143 37.7007C-4.53857 24.7463 4.93256 2.30403 23.0859 2.42606C25.8 2.42117 28.4883 2.95261 30.9964 3.98985C33.5045 5.02708 35.7829 6.54967 37.7009 8.47014C56.2857 28.659 28.6564 56.2856 8.47143 37.7007ZM38.1672 40.3992C38.9792 39.7264 39.7264 38.9791 40.3992 38.167L46.7079 44.4761L44.476 46.7082L38.1672 40.3992ZM61.6684 60.4842L60.4834 61.6693C59.8308 62.3205 58.9465 62.6863 58.0245 62.6863C57.1025 62.6863 56.2182 62.3205 55.5656 61.6693L44.1794 50.2826L50.2822 44.1796L61.6684 55.5662C62.3196 56.2189 62.6854 57.1032 62.6854 58.0252C62.6854 58.9472 62.3196 59.8315 61.6684 60.4842Z" fill="white"/>
<path d="M17 17C17.7985 16.9919 18.5615 16.6722 19.1232 16.1105C19.6849 15.5487 20 14.7903 20 14C20 13.2096 19.6849 12.4512 19.1232 11.8895C18.5614 11.3278 17.7984 11.0081 17 11C16.2015 11.0081 15.4385 11.3278 14.8768 11.8895C14.3151 12.4513 14 13.2097 14 14C14 14.7904 14.3151 15.5488 14.8768 16.1105C15.4386 16.6722 16.2016 16.9919 17 17ZM17 13.3477C17.1726 13.3511 17.337 13.4213 17.4578 13.5432C17.5786 13.6652 17.6463 13.8292 17.6463 14C17.6463 14.1709 17.5786 14.3349 17.4577 14.4568C17.3369 14.5788 17.1725 14.649 17 14.6523C16.8274 14.6489 16.663 14.5787 16.5422 14.4568C16.4214 14.3348 16.3537 14.1708 16.3537 14C16.3537 13.8291 16.4214 13.6651 16.5423 13.5432C16.6631 13.4212 16.8275 13.351 17 13.3477Z" fill="white"/>
<path d="M36.8471 29.3049L31.4925 20.904C31.2929 20.5991 31.0265 20.3415 30.7126 20.15C30.3986 19.9585 30.0452 19.8379 29.6777 19.7969C29.3103 19.756 28.9382 19.7957 28.5885 19.9133C28.2387 20.0308 27.92 20.2232 27.6556 20.4765L26.1567 18.1265C25.9313 17.7811 25.6207 17.4969 25.2537 17.3C24.8867 17.1032 24.475 17 24.0566 17C23.6382 17 23.2266 17.1032 22.8596 17.3001C22.4926 17.4969 22.182 17.7812 21.9566 18.1265L20.4186 20.5373C20.1589 20.27 19.8404 20.0641 19.4873 19.9353C19.1343 19.8065 18.756 19.7582 18.381 19.7939C18.0061 19.8297 17.6444 19.9486 17.3233 20.1417C17.0023 20.3348 16.7303 20.597 16.528 20.9084L11.1723 29.3038C11.0852 29.4902 11.0271 29.6883 11 29.8916C11.0119 30.1818 11.1349 30.457 11.3445 30.6624C11.5541 30.8678 11.835 30.9883 12.1312 30.9999L35.8871 31C36.0859 30.9927 36.2794 30.9353 36.449 30.8333C36.6185 30.7312 36.7583 30.5881 36.8548 30.4176C36.9513 30.2472 37.0013 30.0552 37 29.8603C36.9986 29.6653 36.946 29.474 36.8471 29.3049ZM14.1722 28.7832L18.4458 22.0839C18.7312 21.7271 18.9868 22.4032 19.1213 22.571L16.3689 26.8856C16.2166 27.1347 16.1701 27.4323 16.2394 27.7146C16.3087 27.9968 16.4882 28.2412 16.7394 28.3952C16.9906 28.5491 17.2934 28.6004 17.5827 28.5379C17.8721 28.4754 18.1249 28.3042 18.2868 28.0611L21.379 23.2137C21.3841 23.2059 23.8689 19.3105 23.8744 19.302C23.8937 19.2717 23.9206 19.2467 23.9525 19.2294C23.9844 19.212 24.0202 19.203 24.0567 19.203C24.0931 19.203 24.129 19.2121 24.1609 19.2294C24.1928 19.2467 24.2196 19.2717 24.2389 19.302L29.8255 28.0612C29.9875 28.3042 30.2402 28.4753 30.5295 28.5377C30.8188 28.6 31.1215 28.5488 31.3727 28.3948C31.6238 28.2409 31.8033 27.9966 31.8725 27.7144C31.9418 27.4322 31.8954 27.1346 31.7432 26.8856L28.946 22.4999C29.0644 22.3401 29.3306 21.6995 29.5759 22.0829L33.8466 28.7832L14.1722 28.7832Z" fill="white"/>
</svg>
