<svg width="76" height="76" viewBox="0 0 76 76" fill="none" xmlns="http://www.w3.org/2000/svg">
<path d="M69.871 9.80645H63.7419V3.67742C63.7419 2.70211 63.3545 1.76674 62.6648 1.07709C61.9752 0.387441 61.0398 0 60.0645 0H15.9355C14.9602 0 14.0248 0.387441 13.3352 1.07709C12.6455 1.76674 12.2581 2.70211 12.2581 3.67742V9.80645H6.12903C4.50411 9.8084 2.9463 10.4548 1.7973 11.6038C0.648307 12.7527 0.00194641 14.3106 0 15.9355V55.1613C0.00194641 56.7862 0.648307 58.344 1.7973 59.493C2.9463 60.642 4.50411 61.2884 6.12903 61.2903H27.7192L26.0852 66.1935H24.5161C23.5408 66.1935 22.6055 66.581 21.9158 67.2706C21.2262 67.9603 20.8387 68.8957 20.8387 69.871V74.7742C20.8387 75.0993 20.9679 75.4111 21.1977 75.641C21.4276 75.8709 21.7394 76 22.0645 76H53.9355C54.2606 76 54.5724 75.8709 54.8023 75.641C55.0321 75.4111 55.1613 75.0993 55.1613 74.7742V69.871C55.1613 68.8957 54.7738 67.9603 54.0842 67.2706C53.3945 66.581 52.4592 66.1935 51.4839 66.1935H49.9148L48.2808 61.2903H69.871C71.4959 61.2884 73.0537 60.642 74.2027 59.493C75.3517 58.344 75.9981 56.7862 76 55.1613V15.9355C75.9981 14.3106 75.3517 12.7527 74.2027 11.6038C73.0537 10.4548 71.4959 9.8084 69.871 9.80645ZM14.7097 3.67742C14.7097 3.35232 14.8388 3.04053 15.0687 2.81064C15.2986 2.58076 15.6104 2.45161 15.9355 2.45161H60.0645C60.3896 2.45161 60.7014 2.58076 60.9313 2.81064C61.1612 3.04053 61.2903 3.35232 61.2903 3.67742V9.80645H14.7097V3.67742ZM15.9355 49.0323H39.2258V51.4839C39.2259 51.8089 39.3551 52.1207 39.585 52.3505L41.1699 53.9355H7.35484V17.1613H12.2581V45.3548C12.2581 46.3302 12.6455 47.2655 13.3352 47.9552C14.0248 48.6448 14.9602 49.0323 15.9355 49.0323ZM46.2215 55.5205L41.6774 50.9764V45.3548C41.6774 45.0297 41.8066 44.7179 42.0364 44.4881C42.2663 44.2582 42.5781 44.129 42.9032 44.129H44.129V47.8065H46.5806V28.1935C46.5806 27.8684 46.7098 27.5567 46.9397 27.3268C47.1696 27.0969 47.4813 26.9677 47.8065 26.9677C48.1316 26.9677 48.4433 27.0969 48.6732 27.3268C48.9031 27.5567 49.0323 27.8684 49.0323 28.1935V47.8065H51.4839V39.2258H52.7097C53.0348 39.2258 53.3466 39.355 53.5765 39.5848C53.8063 39.8147 53.9355 40.1265 53.9355 40.4516V47.8065H56.3871V40.4516C56.3871 40.1265 56.5162 39.8147 56.7461 39.5848C56.976 39.355 57.2878 39.2258 57.6129 39.2258C57.938 39.2258 58.2498 39.355 58.4797 39.5848C58.7096 39.8147 58.8387 40.1265 58.8387 40.4516V47.8065H61.2903V41.6774H62.5161C62.8412 41.6774 63.153 41.8066 63.3829 42.0364C63.6128 42.2663 63.7419 42.5781 63.7419 42.9032V51.1946L61.4129 55.8392C61.3302 56.0099 61.2882 56.1974 61.2903 56.3871V58.8387H46.5806V56.3871C46.5806 56.062 46.4514 55.7503 46.2215 55.5205ZM44.129 33.5111C42.8677 36.13 40.7168 38.2154 38.0602 39.3952C35.4036 40.575 32.4142 40.7723 29.6256 39.9519C26.837 39.1316 24.4306 37.347 22.836 34.9166C21.2415 32.4862 20.5624 29.5682 20.9202 26.6835C21.2779 23.7989 22.6492 21.1352 24.7891 19.1679C26.929 17.2007 29.6984 16.0579 32.603 15.9436C35.5075 15.8293 38.3582 16.7509 40.6461 18.5438C42.9341 20.3368 44.5104 22.8845 45.0937 25.7321C44.4758 26.4032 44.1317 27.2813 44.129 28.1935V33.5111ZM63.7419 39.4514V17.1613H68.6452V53.9355H65.1124L66.0648 52.0318C66.1497 51.8616 66.1937 51.674 66.1935 51.4839V42.9032C66.1904 42.1454 65.9532 41.407 65.5143 40.7891C65.0755 40.1712 64.4565 39.704 63.7419 39.4514ZM61.2903 39.2258H61.0648C60.8673 38.655 60.531 38.1423 60.0862 37.7338C59.6414 37.3252 59.102 37.0337 58.5165 36.8853C57.931 36.737 57.3179 36.7366 56.7322 36.8841C56.1465 37.0316 55.6067 37.3224 55.1613 37.7303C54.4912 37.1182 53.6173 36.7774 52.7097 36.7742H51.4839V28.1935C51.4839 27.2182 51.0964 26.2829 50.4068 25.5932C49.7171 24.9036 48.7818 24.5161 47.8065 24.5161C47.6532 24.5216 47.5004 24.5372 47.3492 24.5627C46.5391 21.3784 44.6862 18.557 42.0859 16.5483C39.4855 14.5397 36.2876 13.4595 33.0019 13.48C29.7162 13.5005 26.532 14.6205 23.9569 16.6614C21.3818 18.7024 19.5643 21.5467 18.7939 24.7409C18.0236 27.935 18.3449 31.2952 19.7066 34.2855C21.0683 37.2758 23.392 39.7241 26.3072 41.24C29.2223 42.756 32.5611 43.2522 35.7912 42.6497C39.0212 42.0471 41.9565 40.3804 44.129 37.9154V41.6774H42.9032C41.9279 41.6774 40.9926 42.0649 40.3029 42.7545C39.6133 43.4442 39.2258 44.3795 39.2258 45.3548V46.5806H15.9355C15.6104 46.5806 15.2986 46.4515 15.0687 46.2216C14.8388 45.9917 14.7097 45.6799 14.7097 45.3548V12.2581H61.2903V39.2258ZM2.45161 55.1613V15.9355C2.45161 14.9602 2.83905 14.0248 3.5287 13.3352C4.21835 12.6455 5.15372 12.2581 6.12903 12.2581H12.2581V14.7097H6.12903C5.80393 14.7097 5.49214 14.8388 5.26226 15.0687C5.03237 15.2986 4.90323 15.6104 4.90323 15.9355V55.1613C4.90323 55.4864 5.03237 55.7982 5.26226 56.0281C5.49214 56.258 5.80393 56.3871 6.12903 56.3871H43.6215L44.129 56.8946V58.8387H6.12903C5.15372 58.8387 4.21835 58.4513 3.5287 57.7616C2.83905 57.072 2.45161 56.1366 2.45161 55.1613ZM52.7097 69.871V73.5484H23.2903V69.871C23.2903 69.5459 23.4195 69.2341 23.6494 69.0042C23.8792 68.7743 24.191 68.6452 24.5161 68.6452H51.4839C51.809 68.6452 52.1208 68.7743 52.3506 69.0042C52.5805 69.2341 52.7097 69.5459 52.7097 69.871ZM47.3321 66.1935H28.6679L30.3019 61.2903H45.6981L47.3321 66.1935ZM73.5484 55.1613C73.5484 56.1366 73.1609 57.072 72.4713 57.7616C71.7816 58.4513 70.8463 58.8387 69.871 58.8387H63.7419V56.6764L63.8866 56.3871H69.871C70.1961 56.3871 70.5079 56.258 70.7377 56.0281C70.9676 55.7982 71.0968 55.4864 71.0968 55.1613V15.9355C71.0968 15.6104 70.9676 15.2986 70.7377 15.0687C70.5079 14.8388 70.1961 14.7097 69.871 14.7097H63.7419V12.2581H69.871C70.8463 12.2581 71.7816 12.6455 72.4713 13.3352C73.1609 14.0248 73.5484 14.9602 73.5484 15.9355V55.1613Z" fill="white"/>
<path d="M37.1152 26.6977C37.8759 26.6977 38.6196 26.472 39.2521 26.0491C39.8847 25.6261 40.3777 25.025 40.6688 24.3217C40.9599 23.6185 41.0361 22.8446 40.8877 22.098C40.7393 21.3514 40.3729 20.6656 39.835 20.1273C39.2971 19.589 38.6117 19.2225 37.8656 19.074C37.1194 18.9254 36.346 19.0017 35.6432 19.293C34.9404 19.5843 34.3396 20.0776 33.917 20.7105C33.4943 21.3435 33.2687 22.0876 33.2687 22.8489C33.2748 23.0049 33.2906 23.1605 33.3162 23.3146L29.521 25.2146C28.9782 24.689 28.2927 24.335 27.5501 24.1968C26.8075 24.0585 26.0407 24.1421 25.3452 24.437C24.6498 24.732 24.0565 25.2254 23.6395 25.8556C23.2224 26.4857 23 27.2248 23 27.9807C23 28.7365 23.2224 29.4756 23.6395 30.1058C24.0565 30.7359 24.6498 31.2293 25.3452 31.5243C26.0407 31.8193 26.8075 31.9028 27.5501 31.7645C28.2927 31.6263 28.9782 31.2723 29.521 30.7467L33.3162 32.6467C33.2906 32.8008 33.2748 32.9564 33.2687 33.1125C33.2643 34.0051 33.5685 34.8718 34.1297 35.5656C34.691 36.2595 35.4749 36.7377 36.3483 36.9192C37.2218 37.1007 38.1311 36.9743 38.9221 36.5615C39.713 36.1487 40.3369 35.4748 40.688 34.6542C41.0391 33.8336 41.0958 32.9167 40.8484 32.0591C40.6009 31.2015 40.0647 30.4559 39.3306 29.9487C38.5964 29.4416 37.7096 29.2041 36.8204 29.2766C35.9313 29.3491 35.0946 29.727 34.4522 30.3464L30.657 28.4464C30.7202 28.1391 30.7202 27.8222 30.657 27.5149L34.4522 25.6149C35.1656 26.3082 36.1206 26.6966 37.1152 26.6977ZM37.1152 21.5659C37.3687 21.5659 37.6166 21.6411 37.8275 21.7821C38.0383 21.9231 38.2027 22.1235 38.2997 22.3579C38.3967 22.5923 38.4221 22.8503 38.3727 23.0991C38.3232 23.348 38.2011 23.5766 38.0218 23.756C37.8425 23.9355 37.614 24.0576 37.3653 24.1072C37.1166 24.1567 36.8588 24.1312 36.6245 24.0341C36.3902 23.937 36.19 23.7726 36.0491 23.5616C35.9082 23.3506 35.833 23.1026 35.833 22.8489C35.833 22.5086 35.9681 22.1823 36.2086 21.9417C36.449 21.7011 36.7751 21.5659 37.1152 21.5659ZM26.858 29.2636C26.6045 29.2636 26.3566 29.1884 26.1457 29.0474C25.9349 28.9064 25.7705 28.706 25.6735 28.4716C25.5765 28.2372 25.5511 27.9792 25.6005 27.7304C25.65 27.4815 25.7721 27.2529 25.9514 27.0735C26.1307 26.894 26.3592 26.7719 26.6079 26.7224C26.8566 26.6729 27.1144 26.6983 27.3487 26.7954C27.583 26.8925 27.7832 27.0569 27.9241 27.2679C28.065 27.4789 28.1402 27.7269 28.1402 27.9807C28.1402 28.3209 28.0051 28.6472 27.7647 28.8878C27.5242 29.1284 27.1981 29.2636 26.858 29.2636ZM37.1152 31.8295C37.3687 31.8295 37.6166 31.9047 37.8275 32.0457C38.0383 32.1867 38.2027 32.3871 38.2997 32.6215C38.3967 32.8559 38.4221 33.1139 38.3727 33.3627C38.3232 33.6116 38.2011 33.8402 38.0218 34.0196C37.8425 34.1991 37.614 34.3213 37.3653 34.3708C37.1166 34.4203 36.8588 34.3948 36.6245 34.2977C36.3902 34.2006 36.19 34.0362 36.0491 33.8252C35.9082 33.6142 35.833 33.3662 35.833 33.1125C35.833 32.7722 35.9681 32.4459 36.2086 32.2053C36.449 31.9647 36.7751 31.8295 37.1152 31.8295Z" fill="white"/>
<path d="M58 5H47V8H58V5Z" fill="white"/>
<path d="M29 5H18V8H29V5Z" fill="white"/>
<path d="M44 5H32V8H44V5Z" fill="white"/>
</svg>
