<svg width="65" height="72" viewBox="0 0 65 72" fill="none" xmlns="http://www.w3.org/2000/svg">
<path d="M63.506 37.6897C60.2323 34.4031 56.4476 37.4792 56.4476 37.4792V20.1777C56.4476 19.5967 55.9807 19.1253 55.4045 19.1253C54.8278 19.1253 54.3609 19.5967 54.3609 20.1777V38.9597C54.3609 38.9597 49.3848 42.9155 47.246 43.8824V12.7303C47.246 11.2822 48.414 10.1042 49.8501 10.1042H51.7568C53.1929 10.1042 54.3609 11.2822 54.3609 12.7303V15.8694C54.3609 16.451 54.8278 16.9218 55.4045 16.9218C55.9807 16.9218 56.4476 16.451 56.4476 15.8694V12.7303C56.4476 10.1218 54.3435 8 51.7568 8H49.8501C47.2634 8 45.1588 10.1218 45.1588 12.7303V44.7166C44.5364 44.8926 43.8978 45.012 43.2488 45.0751V22.8887C43.2488 20.267 41.1339 18.1343 38.5346 18.1343H36.6741C34.0749 18.1343 31.9599 20.267 31.9599 22.8887V33.6111L30.0494 34.6339V31.0656C30.0494 28.7054 28.1454 26.7853 25.8054 26.7853H23.0051C20.6646 26.7853 18.7611 28.7054 18.7611 31.0656V40.6764L15.3537 42.5L5.78515 45.2576C4.12028 45.7372 2.72991 46.8367 1.87111 48.3529C1.01177 49.8695 0.77859 51.6356 1.21451 53.3254L2.28474 57.478C2.42933 58.0404 2.99896 58.3775 3.55718 58.2317C4.11485 58.0853 4.44967 57.5109 4.30455 56.948L3.23431 52.7959C2.61359 50.3875 3.98603 47.9648 6.35913 47.2813L15.1074 44.7599L21.6827 62.4566C22.1229 63.6417 22.0534 67.0225 18.5752 68.2684L11.9641 69.7828C9.66006 70.3101 7.38969 68.9174 6.79505 66.6109L5.45305 61.4031C5.30792 60.8408 4.73829 60.5031 4.18062 60.6489C3.6224 60.7953 3.28812 61.3697 3.4327 61.9326L4.77525 67.1409C5.52969 70.0668 8.10716 72 10.9765 72C13.0849 72 19.0378 70.3206 19.0378 70.3206C20.8494 69.9062 22.3942 68.7222 23.2752 67.0735C24.0025 65.713 24.2183 64.1476 23.9063 62.6561L46.7785 57.0094C48.6701 56.5418 50.4659 55.6358 51.9704 54.3888L63.1011 45.1661C66.4944 42.1311 64.504 38.6911 63.506 37.6897ZM36.6741 20.2391H38.5346C39.9832 20.2391 41.1616 21.4279 41.1616 22.8887V45.1277L34.5766 45.125C33.9716 45.1195 34.3901 44.7166 34.4233 44.6892L36.3197 43.1402C38.0889 41.6948 39.2445 39.6854 39.7538 37.1667C40.0772 35.569 39.4728 33.9695 38.1775 32.9928C36.9676 32.0807 35.4114 31.9053 34.0471 32.5082V22.8887C34.0471 21.4279 35.2255 20.2391 36.6741 20.2391ZM20.8483 31.0656C20.8483 29.8663 21.8158 28.8901 23.0051 28.8901H25.8054C26.9947 28.8901 27.9627 29.8663 27.9627 31.0656V35.7509L20.8478 39.5593V31.0656H20.8483ZM61.7765 43.5403L50.6453 52.7631C49.381 53.8111 47.8721 54.5724 46.2823 54.9649L23.2415 60.6538L17.0452 43.9783L34.7374 34.5078C35.4566 34.1225 36.2757 34.1866 36.9274 34.6783C37.5791 35.1699 37.8715 35.9428 37.709 36.7463C37.2986 38.7738 36.3893 40.3749 35.006 41.5046L33.1095 43.0541C32.3323 43.6889 32.0458 44.7133 32.3796 45.6643C32.7133 46.6148 33.5754 47.2298 34.5755 47.2298L42.1791 47.233H42.1845C44.8914 47.233 47.4927 46.4032 49.7071 44.8328L58.2049 38.8067C59.3947 37.9626 60.9965 38.1117 62.0129 39.1608C62.5983 39.7638 63.7441 41.5556 61.7765 43.5403Z" fill="white"/>
<path d="M18 62.5003C18 60.019 15.9814 58 13.5 58C11.0186 58 9 60.019 9 62.5003C9 64.981 11.0186 67 13.5 67C15.9814 67 18 64.981 18 62.5003ZM11.2845 62.5003C11.2845 61.2784 12.278 60.2844 13.5 60.2844C14.7214 60.2844 15.7155 61.2784 15.7155 62.5003C15.7155 63.7216 14.722 64.7156 13.5 64.7156C12.278 64.7156 11.2845 63.7216 11.2845 62.5003Z" fill="white"/>
<path d="M5.55835 33.0071L20.9253 17.6076L24.3819 19.3855C25.6201 20.0223 27.1271 19.8043 28.1314 18.8429L36.4959 10.8357C36.4959 10.8357 36.2658 14.9483 39.7482 14.9483C41.5409 14.9483 43 13.4973 43 11.714V3.23374C43 3.22389 42.9995 3.21348 42.9995 3.20308C42.9879 0.990491 41.3609 0 39.7482 0H31.295C29.5018 0 28.0433 1.45097 28.0433 3.23374C28.0433 6.78834 31.681 6.46749 31.681 6.46749L25.2997 12.5758L21.793 10.7722C20.525 10.1195 18.9971 10.3588 17.9906 11.3663L0.942218 28.451C-0.320832 29.7169 -0.313123 31.7685 0.959837 33.0246C1.57319 33.6296 3.66763 34.8873 5.55835 33.0071ZM2.44257 29.9321L19.491 12.8474C19.7112 12.6273 20.0647 12.2418 20.8218 12.6399L25.0013 14.7895C25.4037 14.9964 25.8938 14.9258 26.2203 14.6132L35.0363 6.17401C35.3468 5.8767 35.4448 5.42115 35.2835 5.02364C35.1222 4.62558 34.7346 4.3655 34.3029 4.3655H31.295C30.6679 4.3655 30.1575 3.85793 30.1575 3.23374C30.1575 2.6101 30.6679 2.10254 31.295 2.10254H39.7482C40.0593 2.10254 40.8852 2.10254 40.8852 3.22717C40.8852 3.23648 40.8857 3.24579 40.8857 3.25564V11.714C40.8857 12.3376 40.3753 12.8452 39.7482 12.8452C39.1206 12.8452 38.6102 12.3376 38.6102 11.714V8.3647C38.6102 7.94309 38.3569 7.56201 37.9671 7.3972C37.5773 7.23185 37.1258 7.31507 36.8202 7.60745L26.6651 17.3284C26.3139 17.6646 25.7864 17.7412 25.3536 17.5184L21.2077 15.3857C20.7975 15.1749 20.297 15.2532 19.9716 15.579L4.058 31.526C3.36426 32.2159 2.66336 31.7439 2.44863 31.532C2.00375 31.0923 2.001 30.3745 2.44257 29.9321Z" fill="white"/>
</svg>
