<svg width="122" height="96" viewBox="0 0 122 96" fill="none" xmlns="http://www.w3.org/2000/svg">
<path fill-rule="evenodd" clip-rule="evenodd" d="M49.1498 0.0189714C29.3763 -0.537917 11.2769 11.2087 3.67319 29.5417C-3.93047 47.8853 0.502578 69.0409 14.8239 82.7459C29.1376 96.4524 50.4168 99.8855 68.2852 91.3685C69.0977 91.0013 69.4573 90.0283 69.0671 89.2251C68.6846 88.4203 67.7114 88.0929 66.9156 88.4984C50.2271 96.4524 30.4061 93.264 17.0244 80.4602C3.64871 67.6564 -0.487474 47.8945 6.62346 30.7641C13.7252 13.6229 30.5882 2.66725 49.0549 3.19354C67.5201 3.71983 83.7481 15.6164 89.8858 33.1309C90.1321 34.0044 91.0717 34.494 91.9332 34.188C92.7947 33.8958 93.2247 32.9304 92.8819 32.0844C86.3219 13.3445 68.9233 0.586569 49.1498 0.0189714Z" fill="white"/>
<path fill-rule="evenodd" clip-rule="evenodd" d="M47.9447 12.0174C32.3063 11.5403 18.073 20.9221 12.4569 35.3984C6.84071 49.8686 11.0625 66.2867 22.9796 76.3305C34.8967 86.3652 51.9481 87.8299 65.4392 79.9863C66.2619 79.572 66.5609 78.5521 66.093 77.7632C65.6158 76.9758 64.5762 76.7434 63.8016 77.254C51.4802 84.4142 35.9626 83.0779 25.0789 73.9117C14.1936 64.7455 10.3359 49.7585 15.4687 36.5314C20.5921 23.3104 33.5767 14.7741 47.8487 15.2053C62.1237 15.6441 74.549 24.9678 78.8513 38.4732C79.1178 39.3172 80.021 39.7805 80.8685 39.5175C81.716 39.2545 82.1916 38.3616 81.9267 37.5252C77.2184 22.7385 63.5739 12.4975 47.9447 12.0174Z" fill="white"/>
<path d="M46.9702 72.0002C45.8699 72.0081 44.9905 72.7543 45.0001 73.6529V76.3614C45.0001 77.2632 45.8911 78 47.0009 78C48.0993 78 48.9999 77.2632 48.9999 76.3614V73.6529C49.0114 72.737 48.0993 71.9861 46.9702 72.0002Z" fill="white"/>
<path d="M46.4728 29.0002C45.6477 29.0167 44.9943 29.7298 45 30.5828V48.4415C45.0073 49.302 45.6766 50 46.5103 50H58.5016C60.4995 50 60.4995 46.8664 58.5016 46.8664L48.0062 46.8739L47.9917 30.5813C48.0062 29.7073 47.3152 28.9866 46.4728 29.0002Z" fill="white"/>
<path fill-rule="evenodd" clip-rule="evenodd" d="M89.8835 41.194H97.1211L98.3694 45.8984C98.7133 47.1926 99.5608 48.3104 100.752 48.8302C101.951 49.3485 103.401 49.2028 104.623 48.4944L108.836 46.0425L113.955 51.1594L111.515 55.3685C110.843 56.5339 110.651 57.9246 111.131 59.1391C111.604 60.3535 112.731 61.2628 114.099 61.6308L118.802 62.8851V70.1211L114.099 71.3662C112.803 71.7096 111.692 72.5561 111.173 73.7551C110.652 74.9527 110.804 76.3987 111.517 77.6208L113.956 81.836L108.837 86.9467L104.624 84.5117C103.464 83.8417 102.09 83.6485 100.874 84.1269C99.6591 84.6083 98.7379 85.7338 98.3709 87.1001L97.1227 91.8014H89.885L88.6306 87.1001C88.2637 85.7262 87.3517 84.6083 86.1357 84.1269C84.9197 83.6485 83.5379 83.8417 82.3771 84.5117L78.1641 86.9467L73.0453 81.836L75.5018 77.6208C76.205 76.3971 76.3493 74.9527 75.8289 73.7551C75.3099 72.5576 74.1968 71.7112 72.9025 71.3662L68.1997 70.1211V62.8851L72.9025 61.6308C74.2705 61.2628 75.4066 60.3535 75.8857 59.1391C76.357 57.9246 76.1574 56.5339 75.4849 55.3685L73.0453 51.1594L78.1641 46.0425L82.3863 48.4944C83.61 49.2028 85.0486 49.3485 86.2493 48.8302C87.4392 48.3104 88.2882 47.1926 88.6322 45.8984L89.8835 41.194ZM88.6537 38C87.9336 38.0092 87.3025 38.4953 87.1183 39.1991L85.543 45.0765C85.3987 45.6117 85.1684 45.811 84.9765 45.8984C84.7754 45.9858 84.5036 46.0349 83.977 45.7313L78.7061 42.6798C78.0828 42.321 77.2905 42.4238 76.7792 42.9283L69.9346 49.7732C69.4141 50.2838 69.3113 51.0735 69.6782 51.7053L72.7244 56.977C73.0053 57.4631 72.9884 57.7759 72.9086 57.9737C72.8364 58.1746 72.6691 58.3831 72.0764 58.5426L66.1914 60.1143C65.4959 60.2983 65 60.93 65 61.6569V71.3447C65 72.0623 65.4959 72.6941 66.1914 72.8781L72.0764 74.4574C72.6123 74.6016 72.8272 74.8346 72.9086 75.0248C72.9961 75.2241 73.036 75.4894 72.7244 76.023L69.6767 81.2947C69.3097 81.9157 69.4126 82.7162 69.9331 83.2268L76.7777 90.0794C77.289 90.59 78.0812 90.6928 78.7046 90.3355L83.9754 87.2687C84.4621 86.9897 84.7754 87.0188 84.975 87.1016C85.1669 87.1737 85.3834 87.3239 85.5415 87.9235L87.1168 93.8178C87.301 94.5124 87.932 94.9908 88.6521 95H98.3448C99.0649 94.9908 99.6882 94.5124 99.8802 93.8178L101.455 87.9235C101.615 87.3331 101.822 87.1737 102.022 87.1016C102.223 87.0203 102.55 86.9897 103.029 87.2687L108.308 90.3355C108.931 90.6928 109.716 90.5916 110.227 90.0794L117.081 83.2268C117.592 82.7162 117.696 81.9173 117.328 81.2947L114.274 76.023C113.962 75.4879 114.01 75.2241 114.099 75.0248C114.187 74.8331 114.394 74.6016 114.93 74.4574L120.816 72.8781C121.512 72.6941 122 72.0623 122 71.3447V61.6569C122 60.9392 121.513 60.3075 120.816 60.1143L114.922 58.5426C114.329 58.3831 114.179 58.1746 114.099 57.9737C114.018 57.7759 113.995 57.4631 114.274 56.977L117.328 51.7053C117.696 51.0735 117.592 50.2854 117.081 49.7732L110.227 42.9283C109.716 42.4176 108.923 42.3134 108.292 42.6798L103.021 45.7313C102.486 46.0349 102.222 45.9873 102.022 45.8984C101.83 45.8095 101.6 45.6178 101.455 45.0765L99.8802 39.1991C99.6959 38.4953 99.0649 38.0092 98.3448 38H88.6537Z" fill="white"/>
<path fill-rule="evenodd" clip-rule="evenodd" d="M93.5031 58.9368C98.6654 58.9368 102.812 62.7582 102.812 67.5035C102.812 72.2517 98.6654 76.066 93.5031 76.066C88.3423 76.066 84.1787 72.2517 84.1787 67.5035C84.1787 62.7582 88.3408 58.9368 93.5031 58.9368ZM93.5031 56C86.6164 56 81 61.1721 81 67.5035C81 73.8349 86.6164 79 93.5031 79C100.391 79 106 73.8349 106 67.5035C106 61.1736 100.391 56 93.5031 56Z" fill="white"/>
<path d="M21.9999 48.9899C21.9934 48.434 21.3727 47.9952 20.6144 48H18.3633C17.6142 48 17 48.4446 17 49.0005C17 49.5545 17.6142 50 18.3633 50H20.6144C21.3858 50.0048 22.0065 49.5506 21.9999 48.9899Z" fill="white"/>
<path d="M29.6443 30.618C30.1281 30.1258 30.1172 29.3264 29.6189 28.8427L28.152 27.3673C27.661 26.8776 26.8604 26.8776 26.3682 27.3673C25.8773 27.8595 25.8773 28.6589 26.3682 29.1511L27.8424 30.6192C28.3334 31.1271 29.1533 31.1271 29.6443 30.618Z" fill="white"/>
<path d="M68.5218 27.3562C67.9083 26.8713 66.9095 26.8834 66.3021 27.3804L64.4601 28.8472C63.8466 29.3455 63.8466 30.1387 64.4601 30.6309C65.0736 31.123 66.0724 31.123 66.6874 30.6309L68.5218 29.158C69.1594 28.6646 69.1594 27.852 68.5218 27.3562Z" fill="white"/>
<path d="M29.6182 65.4452C29.1273 64.839 28.3281 64.8541 27.8421 65.477L26.3682 67.3201C25.8773 67.9324 25.8773 68.9273 26.3682 69.5396C26.8591 70.1535 27.6595 70.1535 28.1516 69.5396L29.6182 67.6965C30.1273 67.0842 30.1273 66.0682 29.6182 65.4452Z" fill="white"/>
</svg>
