<?xml version="1.0" encoding="UTF-8"?>
<svg width="1200pt" height="1200pt" version="1.1" viewBox="0 0 1200 1200" xmlns="http://www.w3.org/2000/svg">
 <g>
  <path d="m190.8 702.02c-1.3398 0-2.6719-0.30859-3.8828-0.92969l-139.38-70.914c-4.2188-2.1523-5.9023-7.3086-3.7578-11.527l165.06-324.57c2.125-4.1758 7.2305-5.8594 11.426-3.8086l138.46 68.188c2.0508 1.0117 3.6172 2.7969 4.3438 4.9648 0.72656 2.1602 0.5625 4.5273-0.46875 6.5703l-164.14 327.3c-1.0195 2.043-2.8125 3.5898-4.9805 4.3008-0.87109 0.28516-1.7734 0.42578-2.6797 0.42578zm-127.85-83.238 124.05 63.113 156.4-311.87-123.11-60.637z"/>
  <path d="m1003.3 702.32c-1.1562 0-2.3203-0.23438-3.3984-0.70312-2.0938-0.90234-3.7422-2.6133-4.5781-4.7383l-133.79-340.6c-0.83594-2.1172-0.78516-4.4961 0.13281-6.5781 0.91406-2.0938 2.6289-3.7266 4.7617-4.5469l144.08-55.562c4.3711-1.707 9.293 0.45312 11.039 4.8125l134.95 337.96c1.7578 4.3945-0.38672 9.375-4.7695 11.141l-145.25 58.199c-1.0195 0.41406-2.1055 0.61328-3.1875 0.61328zm-122.65-344.27 127.48 324.54 129.29-51.805-128.64-322.14z"/>
  <path d="m156.85 598.52c-2.2266 0-4.4609-0.85547-6.1758-2.5703-1.5391-1.5391-2.3945-3.7734-2.3945-6s0.85547-4.4531 2.3945-6c3.2656-3.2578 8.9141-3.2578 12.18 0 1.5391 1.5469 2.5703 3.7734 2.5703 6s-1.0312 4.4609-2.5703 6c-1.5508 1.7148-3.7773 2.5703-6.0039 2.5703z"/>
  <path d="m1051.9 598.52c-2.2266 0-4.4609-0.85547-6.168-2.5703-1.5469-1.5391-2.4023-3.7734-2.4023-6s0.85547-4.4531 2.4023-6c3.4219-3.2578 9.082-3.2578 12.172 0 1.5391 1.5469 2.5703 3.7734 2.5703 6s-1.0312 4.4609-2.5703 6c-1.5508 1.7148-3.7773 2.5703-6.0039 2.5703z"/>
  <path d="m392.54 444.27c-1.2969 0-2.5859-0.29297-3.7852-0.87891l-58.133-28.594c-4.2422-2.0938-5.9922-7.2227-3.9102-11.477 2.0938-4.2422 7.25-5.9609 11.477-3.9102l54.074 26.602 86.434-48.809c17.527-9.8945 37.098-13.828 55.043-11.141 13.527 2.043 24.762 7.1484 33.375 15.184 3.457 3.2305 3.6484 8.6562 0.41797 12.121-3.2305 3.457-8.6367 3.6562-12.121 0.41797-6.0273-5.6328-14.188-9.2578-24.234-10.766-14.188-2.1445-29.848 1.0898-44.055 9.1172l-90.375 51.027c-1.293 0.73828-2.75 1.1055-4.207 1.1055z"/>
  <path d="m285.26 711.19c-1.5469 0-3.1133-0.41797-4.5195-1.2969l-75.477-47.016c-4.0195-2.5039-5.25-7.7852-2.7461-11.801 2.5039-4.0352 7.8008-5.2578 11.801-2.7461l75.477 47.016c4.0195 2.5039 5.25 7.7852 2.7461 11.801-1.6211 2.6094-4.418 4.043-7.2812 4.043z"/>
  <path d="m323.86 771.72c-8.4531 0-16.992-2.5625-24.34-7.8672l-12.035-8.6953c-8.9883-6.4883-14.883-16.062-16.598-26.969-1.707-10.875 0.95313-21.754 7.4844-30.637 13.434-18.348 39.41-22.398 57.906-9.0391l12.035 8.6875c8.9883 6.4961 14.883 16.078 16.598 26.988 1.707 10.875-0.95312 21.746-7.4844 30.629-8.1055 11.031-20.75 16.902-33.566 16.902zm-11.961-73.945c-7.5352 0-14.957 3.4414-19.723 9.918-3.8008 5.1797-5.3477 11.508-4.3516 17.828 0.99609 6.3516 4.4375 11.945 9.6836 15.738l12.047 8.6953c10.898 7.8594 26.156 5.4727 34.059-5.2891 3.8008-5.1719 5.3477-11.508 4.3594-17.828-1.0039-6.3516-4.4453-11.945-9.7031-15.746l-12.035-8.6875c-4.3242-3.125-9.3555-4.6289-14.336-4.6289z"/>
  <path d="m376.34 822.12c-8.2266 0-16.414-2.2031-23.672-6.8398-9.8867-6.3125-16.742-16.273-19.285-28.059-2.7617-12.75-0.11719-26.586 7.2578-37.945l9.7109-14.957c14.73-22.66 44.086-30.023 65.398-16.406 9.8867 6.3047 16.742 16.273 19.293 28.051 2.7617 12.758 0.11719 26.594-7.2578 37.953l-9.7188 14.957c-9.7188 14.957-25.789 23.246-41.727 23.246zm-11.613-78.457-9.7109 14.957c-4.9062 7.5508-6.6875 16.656-4.8867 24.977 1.582 7.2734 5.7578 13.402 11.762 17.234 13.453 8.5898 32.176 3.5078 41.793-11.301l9.7188-14.957c4.9062-7.5508 6.6875-16.656 4.8789-24.977-1.5742-7.2812-5.75-13.402-11.762-17.234-13.422-8.5703-32.164-3.5156-41.793 11.301z"/>
  <path d="m431.43 869.78c-9.1836 0-18.316-2.7969-26.031-8.5977-9.1914-6.9141-15.125-17.109-16.723-28.711-1.707-12.43 1.6641-24.918 9.5-35.164l32.586-42.621c15.594-20.391 44.23-25.027 63.773-10.328 9.1836 6.9062 15.125 17.102 16.723 28.703 1.707 12.43-1.6641 24.918-9.4922 35.172l-32.602 42.621c-9.4336 12.355-23.648 18.926-37.734 18.926zm12.941-104.68-32.586 42.621c-5.0312 6.5859-7.2148 14.547-6.1289 22.418 0.96094 7.0391 4.5273 13.199 10.035 17.336 12.105 9.0977 29.957 5.9258 39.852-7.0312l32.602-42.621c5.0312-6.5859 7.207-14.555 6.1289-22.426-0.97266-7.0391-4.5352-13.191-10.035-17.328-12.062-9.0664-29.934-5.9297-39.867 7.0312z"/>
  <path d="m499.42 901.39c-9.5664 0-19.547-3.1562-28.125-9.6016-9.9766-7.5078-16.605-18.434-18.199-29.992-1.3555-9.918 1.0781-19.555 6.8711-27.137l25.875-33.824c12.965-16.949 39.133-19.02 58.324-4.6055 9.9766 7.5078 16.605 18.434 18.199 29.992 1.3555 9.918-1.0781 19.555-6.8711 27.137l-25.875 33.824c-7.1641 9.375-18.371 14.195-30.199 14.207zm16.559-97.688c-6.6133 0-12.691 2.5352-16.523 7.543l-25.863 33.824c-3.8438 5.0312-4.0273 10.605-3.5078 14.391 0.97266 7.0664 5.1719 13.852 11.52 18.625 11.676 8.7656 27.137 8.2031 34.41-1.3125l25.863-33.824c3.8438-5.0312 4.0273-10.605 3.5078-14.391-0.97266-7.0664-5.1719-13.852-11.52-18.625-5.543-4.168-11.93-6.2305-17.887-6.2305zm-23.328 2.3359h0.16797z"/>
  <path d="m633.48 911c-46.164 0-94.254-47.27-96.445-49.453-3.3555-3.3398-3.375-8.7656-0.035156-12.121 3.3477-3.3398 8.7734-3.375 12.121-0.035156 0.52734 0.51172 52.609 51.512 92.988 43.66 15.609-3.0469 27.473-14.555 36.277-35.18 1.8594-4.3594 6.9297-6.3711 11.25-4.5195 4.3516 1.8594 6.3789 6.8984 4.5195 11.25-11.059 25.898-27.473 41.133-48.793 45.285-3.9219 0.76172-7.8984 1.1133-11.883 1.1133z"/>
  <path d="m711.98 871.28c-56.234 0-102.77-79.242-104.71-82.625-2.3672-4.0938-0.98047-9.332 3.1211-11.711 4.0859-2.3516 9.3516-0.95312 11.711 3.1133 0.42578 0.74609 43.52 74.078 89.875 74.078h0.17578c20.434-0.082031 39.352-15.16 56.234-44.809 2.3359-4.1094 7.5664-5.5508 11.695-3.207 4.1094 2.3438 5.5508 7.5742 3.207 11.695-20.148 35.375-44.07 53.363-71.09 53.461-0.074218 0.003906-0.14844 0.003906-0.21484 0.003906z"/>
  <path d="m801.68 824.47c-63.363 0-126.7-101.21-129.43-105.6-2.4844-4.0273-1.2461-9.3086 2.7773-11.801 4.0352-2.4609 9.3086-1.2383 11.801 2.7773 17.359 28.043 71.703 100.26 117.45 97.398 19.871-1.2461 36.988-17.277 50.867-47.645 1.9688-4.293 7.0234-6.2109 11.359-4.2266 4.3008 1.9688 6.1953 7.0469 4.2266 11.359-16.707 36.562-38.715 55.957-65.391 57.621-1.2188 0.082032-2.4375 0.11719-3.6602 0.11719z"/>
  <path d="m885.89 771.31c-0.65234 0-1.3125-0.015625-1.9766-0.042969-60.418-2.3008-141.89-116.19-145.33-121.05-2.7383-3.8594-1.832-9.207 2.0273-11.945 3.875-2.7461 9.2148-1.8242 11.953 2.0273 22.082 31.113 88.828 112.2 132 113.84 9.3008 0.29297 16.84-3.1562 23.129-10.715 12.406-14.934 18.098-28.895 16.918-41.5-1.2656-13.441-10.348-23.555-17.746-29.656-19.445-16.055-37.859-32.973-54.742-50.281-33.316-34.168-71.938-62.184-114.78-83.254l-104.25-51.262c-9.4492-4.6445-20.355-4.8398-29.977-0.5625-8.5977 3.832-15.152 10.723-18.449 19.387-7.1484 18.742-20.449 43.023-43.25 52.266-14.348 5.8086-30.184 4.7695-47.059-3.1133-0.50391-0.24219-42.047-21.043-17.445-84.609 12.59-32.504 37.398-60.914 69.859-79.988 45.688-26.852 100.7-32.562 150.92-15.68l98.883 33.246 86.543-23.297c4.5547-1.2656 9.2734 1.4727 10.504 6.0508 1.2305 4.5703-1.4805 9.2734-6.0508 10.504l-89.047 23.965c-1.625 0.43359-3.3633 0.375-4.957-0.15234l-101.33-34.066c-45.535-15.328-95.391-10.152-136.77 14.203-29.145 17.125-51.363 42.48-62.562 71.402-18.668 48.215 7.75 62.387 8.8828 62.965 12.398 5.7773 23.312 6.7031 33.199 2.6719 17.98-7.2734 28.812-29.742 33.668-42.48 4.9375-12.949 14.699-23.219 27.488-28.93 14.273-6.3711 30.484-6.0703 44.523 0.82812l104.25 51.262c44.598 21.938 84.801 51.094 119.48 86.668 16.457 16.875 34.418 33.375 53.387 49.027 14.195 11.727 22.465 26 23.898 41.285 1.625 17.301-5.375 35.492-20.793 54.047-9.3398 11.242-21.109 16.938-35.004 16.938z"/>
  <path d="m922.6 684.7c-3.6836 0-7.0898-2.3945-8.2109-6.1016-1.3633-4.5273 1.207-9.3086 5.7422-10.68l66-19.871c4.5117-1.3828 9.3086 1.207 10.68 5.7422 1.3633 4.5273-1.207 9.3086-5.7422 10.68l-66 19.871c-0.81641 0.24219-1.6562 0.35937-2.4688 0.35937z"/>
 </g>
</svg>
