<?xml version="1.0" encoding="UTF-8"?>
<svg width="1200pt" height="1200pt" version="1.1" viewBox="0 0 1200 1200" xmlns="http://www.w3.org/2000/svg">
 <g>
  <path d="m804.09 576.03c0-57.949-24.773-113.36-67.965-152.05-43.16-38.668-101.26-57.188-159.29-50.742-93.859 10.359-169.42 86.008-179.66 179.89-6.7891 62.309 14.551 123.26 58.578 167.22 21.172 21.16 34.164 47.781 37.633 76.172h-10.996c-8.4492 0-15.281 6.8359-15.281 15.281v54.906c0 31.352 24.402 56.84 55.172 59.145v2.9961c0 29.328 23.863 53.191 53.191 53.191h49.055c29.328 0 53.191-23.863 53.191-53.191l0.003906-2.9922c30.77-2.3086 55.176-27.797 55.176-59.145v-54.906c0-8.4453-6.8359-15.281-15.285-15.281h-11.055c3.3008-28.555 15.672-54.855 35.219-73.754 40.172-38.805 62.305-90.918 62.305-146.75zm-156.93 352.84c0 12.477-10.148 22.625-22.625 22.625h-49.055c-12.477 0-22.625-10.148-22.625-22.625v-2.5508h94.305zm55.172-62.145c0 16-13.027 29.027-29.027 29.027h-146.6c-16 0-29.027-13.027-29.027-29.027v-39.621h204.65zm-26.594-70.188-60.457-0.011718v-147.27l59.07-59.07c5.9688-5.9688 5.9688-15.641 0-21.609s-15.641-5.9688-21.609 0l-52.742 52.742-52.727-52.742c-5.9688-5.9688-15.641-5.9688-21.609 0s-5.9688 15.641 0 21.609l59.055 59.07v147.27l-60.473-0.011719c-3.5664-36.535-19.895-70.801-46.875-97.754-37.43-37.398-55.594-89.262-49.801-142.3 8.7031-79.754 72.891-144.03 152.61-152.82 50.145-5.5664 98.305 9.7617 135.54 43.113 36.727 32.895 57.801 80.023 57.801 129.29 0 47.457-18.82 91.77-52.98 124.78-25.445 24.578-41.34 58.844-44.805 95.723z"/>
  <path d="m615.28 305.13v-71.902c0-8.4492-6.8359-15.281-15.281-15.281-8.4492 0-15.281 6.8359-15.281 15.281v71.902c0 8.4453 6.8359 15.281 15.281 15.281 8.4492 0.003906 15.281-6.832 15.281-15.281z"/>
  <path d="m408.45 399.76c3.9102 0 7.8203-1.4922 10.805-4.4766 5.9688-5.9688 5.9688-15.641 0-21.609l-50.848-50.848c-5.9688-5.9688-15.641-5.9688-21.609 0s-5.9688 15.641 0 21.609l50.848 50.848c2.9844 2.9844 6.8945 4.4766 10.805 4.4766z"/>
  <path d="m241.91 576.03c0 8.4492 6.8359 15.281 15.285 15.281h71.918c8.4492 0 15.281-6.8359 15.281-15.281 0-8.4492-6.8359-15.281-15.281-15.281h-71.918c-8.4492 0-15.285 6.8359-15.285 15.281z"/>
  <path d="m346.8 829.23c2.9844 2.9844 6.8945 4.4766 10.805 4.4766 3.9102 0 7.8203-1.4922 10.805-4.4766l50.848-50.848c5.9688-5.9688 5.9688-15.641 0-21.609s-15.641-5.9688-21.609 0l-50.848 50.848c-5.9688 5.9688-5.9688 15.641 0 21.609z"/>
  <path d="m853.21 322.83c-5.9688-5.9688-15.641-5.9688-21.609 0l-50.848 50.848c-5.9688 5.9688-5.9688 15.641 0 21.609 2.9844 2.9844 6.8945 4.4766 10.805 4.4766s7.8203-1.4922 10.805-4.4766l50.848-50.848c5.9727-5.9688 5.9727-15.637 0-21.609z"/>
  <path d="m958.09 576.03c0-8.4492-6.8359-15.281-15.285-15.281h-71.902c-8.4453 0-15.281 6.8359-15.281 15.281 0 8.4492 6.8359 15.281 15.281 15.281h71.902c8.4492 0 15.285-6.832 15.285-15.281z"/>
  <path d="m831.61 829.23c2.9844 2.9844 6.8945 4.4766 10.805 4.4766s7.8203-1.4922 10.805-4.4766c5.9688-5.9688 5.9688-15.641 0-21.609l-50.848-50.848c-5.9688-5.9688-15.641-5.9688-21.609 0s-5.9688 15.641 0 21.609z"/>
 </g>
</svg>
