<?xml version="1.0" encoding="UTF-8"?>
<svg width="1200pt" height="1200pt" version="1.1" viewBox="0 0 1200 1200" xmlns="http://www.w3.org/2000/svg">
 <path d="m1050 693.75h-18.75v-18.75c0-10.367-8.3828-18.75-18.75-18.75s-18.75 8.3828-18.75 18.75v29.738l-34.613 34.613c-46.066-39.957-105.99-64.352-171.64-64.352-17.211 0-34.031 1.7812-50.324 4.9688-4.0703-5.6797-7.8555-10.648-11.363-15.113 14.586-10.18 24.188-27.02 24.188-46.105 0-26.043-17.867-47.793-41.926-54.188 28.125-46.48 79.426-145.11 79.426-245.81 0-315.11-352.69-318.75-356.25-318.75-10.367 0-18.75 8.3828-18.75 18.75v68.551l-180.34 141.71c-4.5195 3.543-7.1641 8.9805-7.1641 14.738v112.5c0 5.5117 2.418 10.742 6.6172 14.305 4.2188 3.5625 9.7891 5.1016 15.207 4.1992l173.14-28.855c-37.82 47.211-93.133 129.86-100.39 216.62l-0.82422 0.003906c-31.012 0-56.25 25.238-56.25 56.25 0 19.051 9.5625 35.852 24.074 46.031-28.836 36.316-80.324 115.27-80.324 216.45v37.5h-18.75c-31.012 0-56.25 25.238-56.25 56.25v75c0 10.367 8.3828 18.75 18.75 18.75h410.51c45.469 78.336 130.09 131.25 226.99 131.25 144.75 0 262.5-117.75 262.5-262.5 0-65.645-24.395-125.57-64.352-171.64l34.613-34.613h29.738c10.367 0 18.75-8.3828 18.75-18.75s-8.3828-18.75-18.75-18.75zm-300-375c0 106.14-65.867 214.5-84.992 243.75h-45.75c34.234-47.867 93.242-144.6 93.242-243.75 0-221.06-258.45-243.49-261.05-243.7-0.50781-0.035157-0.95703 0.1875-1.4453 0.1875v-36.938c68.945 4.875 300 39.246 300 280.45zm-267.99 13.258c5.7734-5.7734 7.1445-14.586 3.4141-21.844-3.7305-7.2578-11.852-11.211-19.742-9.8984l-203.18 33.84v-81.242l180.34-141.71s5.1758 1.1641 7.1641 1.332c9.2422 0.73047 225 20.023 225 206.25 0 106.76-81.02 216.36-102.7 243.75l-214.91-0.003906c11.492-115.65 123.43-229.27 124.61-230.47zm-163.26 267.99h375c10.352 0 18.75 8.3984 18.75 18.75s-8.3984 18.75-18.75 18.75h-375c-10.352 0-18.75-8.3984-18.75-18.75s8.3984-18.75 18.75-18.75zm-75 281.25c0-104.66 64.648-185.25 83.23-206.25h358.52c3.207 3.6016 7.707 8.9805 13.012 15.863-95.383 34.52-165.09 122.62-172.57 227.89h-282.19zm-75 150v-56.25c0-10.352 8.3984-18.75 18.75-18.75h338.46c1.875 26.25 7.5938 51.414 16.668 75zm843.75-93.75c0 124.07-100.93 225-225 225s-225-100.93-225-225 100.93-225 225-225c55.293 0 105.92 20.137 145.12 53.363l-26.551 26.551c-32.324-26.477-73.629-42.414-118.57-42.414-103.39 0-187.5 84.113-187.5 187.5s84.113 187.5 187.5 187.5 187.5-84.113 187.5-187.5c0-44.945-15.938-86.25-42.414-118.57l26.551-26.551c33.227 39.207 53.363 89.832 53.363 145.12zm-150 0c0 41.363-33.637 75-75 75s-75-33.637-75-75 33.637-75 75-75c13.855 0 26.719 4.0508 37.855 10.613l-51.113 51.133c-7.332 7.332-7.332 19.18 0 26.512 3.6562 3.6562 8.457 5.4922 13.258 5.4922s9.6016-1.8359 13.258-5.4922l51.133-51.133c6.5586 11.156 10.609 24.02 10.609 37.875zm-9.918-91.594c-18.395-13.105-40.82-20.906-65.082-20.906-62.043 0-112.5 50.457-112.5 112.5s50.457 112.5 112.5 112.5 112.5-50.457 112.5-112.5c0-24.262-7.8008-46.688-20.906-65.082l26.758-26.758c19.742 25.41 31.648 57.227 31.648 91.84 0 82.707-67.293 150-150 150s-150-67.293-150-150 67.293-150 150-150c34.613 0 66.43 11.906 91.82 31.648z"/>
</svg>
